{
	"asset":{
		"generator":"Khronos glTF Blender I/O v4.2.60",
		"version":"2.0"
	},
	"scene":0,
	"scenes":[
		{
			"name":"Scene",
			"nodes":[
				0,
				1
			]
		}
	],
	"nodes":[
		{
			"mesh":0,
			"name":"petals",
			"translation":[
				0.007946014404296875,
				0,
				0
			]
		},
		{
			"mesh":1,
			"name":"center",
			"translation":[
				-0.007946014404296875,
				-0.38618120551109314,
				1.1444091796875e-05
			]
		}
	],
	"materials":[
		{
			"doubleSided":true,
			"name":"darkred",
			"pbrMetallicRoughness":{
				"baseColorFactor":[
					1,
					0.03200000151991844,
					0.03200000151991844,
					1
				],
				"metallicFactor":0,
				"roughnessFactor":0.6000000238418579
			}
		},
		{
			"doubleSided":true,
			"name":"yellowgem",
			"pbrMetallicRoughness":{
				"baseColorFactor":[
					1,
					0.5769169926643372,
					0,
					1
				],
				"metallicFactor":0,
				"roughnessFactor":0.6000000238418579
			}
		}
	],
	"meshes":[
		{
			"name":"petals",
			"primitives":[
				{
					"attributes":{
						"POSITION":0,
						"NORMAL":1,
						"TEXCOORD_0":2
					},
					"indices":3,
					"material":0
				}
			]
		},
		{
			"name":"center",
			"primitives":[
				{
					"attributes":{
						"POSITION":4,
						"NORMAL":5,
						"TEXCOORD_0":6
					},
					"indices":7,
					"material":1
				}
			]
		}
	],
	"accessors":[
		{
			"bufferView":0,
			"componentType":5126,
			"count":1536,
			"max":[
				20.62029266357422,
				6.796472072601318,
				20.620285034179688
			],
			"min":[
				-20.620254516601562,
				-4.890085697174072,
				-20.620254516601562
			],
			"type":"VEC3"
		},
		{
			"bufferView":1,
			"componentType":5126,
			"count":1536,
			"type":"VEC3"
		},
		{
			"bufferView":2,
			"componentType":5126,
			"count":1536,
			"type":"VEC2"
		},
		{
			"bufferView":3,
			"componentType":5123,
			"count":2304,
			"type":"SCALAR"
		},
		{
			"bufferView":4,
			"componentType":5126,
			"count":114,
			"max":[
				2.3712844848632812,
				0.9862903356552124,
				2.3553848266601562
			],
			"min":[
				-2.339458465576172,
				-1.0291744470596313,
				-2.355358123779297
			],
			"type":"VEC3"
		},
		{
			"bufferView":5,
			"componentType":5126,
			"count":114,
			"type":"VEC3"
		},
		{
			"bufferView":6,
			"componentType":5126,
			"count":114,
			"type":"VEC2"
		},
		{
			"bufferView":7,
			"componentType":5123,
			"count":144,
			"type":"SCALAR"
		}
	],
	"bufferViews":[
		{
			"buffer":0,
			"byteLength":18432,
			"byteOffset":0,
			"target":34962
		},
		{
			"buffer":0,
			"byteLength":18432,
			"byteOffset":18432,
			"target":34962
		},
		{
			"buffer":0,
			"byteLength":12288,
			"byteOffset":36864,
			"target":34962
		},
		{
			"buffer":0,
			"byteLength":4608,
			"byteOffset":49152,
			"target":34963
		},
		{
			"buffer":0,
			"byteLength":1368,
			"byteOffset":53760,
			"target":34962
		},
		{
			"buffer":0,
			"byteLength":1368,
			"byteOffset":55128,
			"target":34962
		},
		{
			"buffer":0,
			"byteLength":912,
			"byteOffset":56496,
			"target":34962
		},
		{
			"buffer":0,
			"byteLength":288,
			"byteOffset":57408,
			"target":34963
		}
	],
	"buffers":[
		{
			"byteLength":57696,
			"uri":"Flower.bin"
		}
	]
}
